{
  "accessors": [
    {
      "bufferView": 2,
      "componentType": 5126,
      "count": 480,
      "max": [
        1.4776971340179443,
        1.016209363937378,
        27.121742248535156
      ],
      "min": [
        -1.4776971340179443,
        -2.9386026859283447,
        -7.519569396972656
      ],
      "type": "VEC3"
    },
    {
      "bufferView": 2,
      "byteOffset": 5760,
      "componentType": 5126,
      "count": 480,
      "max": [
        0.9999127388000488,
        0.9490238428115845,
        1.0
      ],
      "min": [
        -0.9999127388000488,
        -0.9934781789779663,
        -1.0
      ],
      "type": "VEC3"
    },
    {
      "bufferView": 1,
      "componentType": 5126,
      "count": 480,
      "max": [
        1.0,
        1.0000001192092896
      ],
      "min": [
        0.0,
        0.0
      ],
      "type": "VEC2"
    },
    {
      "bufferView": 0,
      "componentType": 5125,
      "count": 1404,
      "type": "SCALAR"
    },
    {
      "bufferView": 2,
      "byteOffset": 11520,
      "componentType": 5126,
      "count": 410,
      "max": [
        23.556598663330078,
        14.074944496154785,
        0.9350283145904541
      ],
      "min": [
        -23.556598663330078,
        -11.19205093383789,
        -1.0649724006652832
      ],
      "type": "VEC3"
    },
    {
      "bufferView": 2,
      "byteOffset": 16440,
      "componentType": 5126,
      "count": 410,
      "max": [
        1.0,
        1.0,
        0.9999425411224365
      ],
      "min": [
        -1.0,
        -1.0,
        -0.9998968243598938
      ],
      "type": "VEC3"
    },
    {
      "bufferView": 1,
      "byteOffset": 3840,
      "componentType": 5126,
      "count": 410,
      "max": [
        0.875,
        1.0
      ],
      "min": [
        0.125,
        0.0
      ],
      "type": "VEC2"
    },
    {
      "bufferView": 0,
      "byteOffset": 5616,
      "componentType": 5125,
      "count": 1488,
      "type": "SCALAR"
    },
    {
      "bufferView": 2,
      "byteOffset": 21360,
      "componentType": 5126,
      "count": 420,
      "max": [
        2.744152545928955,
        17.963069915771484,
        1.4847028255462646
      ],
      "min": [
        -2.744152545928955,
        -6.274046897888184,
        -1.0694876909255981
      ],
      "type": "VEC3"
    },
    {
      "bufferView": 2,
      "byteOffset": 26400,
      "componentType": 5126,
      "count": 420,
      "max": [
        1.0,
        1.0,
        0.9995980262756348
      ],
      "min": [
        -1.0,
        -0.9941233396530151,
        -0.9999827146530151
      ],
      "type": "VEC3"
    },
    {
      "bufferView": 1,
      "byteOffset": 7120,
      "componentType": 5126,
      "count": 420,
      "max": [
        0.75,
        0.875
      ],
      "min": [
        0.25,
        0.375
      ],
      "type": "VEC2"
    },
    {
      "bufferView": 0,
      "byteOffset": 11568,
      "componentType": 5125,
      "count": 1596,
      "type": "SCALAR"
    },
    {
      "bufferView": 2,
      "byteOffset": 31440,
      "componentType": 5126,
      "count": 188,
      "max": [
        0.835365355014801,
        36.119049072265625,
        1.0
      ],
      "min": [
        -0.835365355014801,
        -47.42856979370117,
        -67.96430969238281
      ],
      "type": "VEC3"
    },
    {
      "bufferView": 2,
      "byteOffset": 33696,
      "componentType": 5126,
      "count": 188,
      "max": [
        1.0,
        1.0,
        1.0
      ],
      "min": [
        -1.0,
        -1.0,
        -1.0
      ],
      "type": "VEC3"
    },
    {
      "bufferView": 1,
      "byteOffset": 10480,
      "componentType": 5126,
      "count": 188,
      "max": [
        0.875,
        1.0
      ],
      "min": [
        0.1249999850988388,
        0.0
      ],
      "type": "VEC2"
    },
    {
      "bufferView": 0,
      "byteOffset": 17952,
      "componentType": 5125,
      "count": 684,
      "type": "SCALAR"
    },
    {
      "bufferView": 2,
      "byteOffset": 35952,
      "componentType": 5126,
      "count": 176,
      "max": [
        35.83512878417969,
        18.784353256225586,
        1.9580812454223633
      ],
      "min": [
        -35.83512878417969,
        -6.741292953491211,
        -1.9640414714813232
      ],
      "type": "VEC3"
    },
    {
      "bufferView": 2,
      "byteOffset": 38064,
      "componentType": 5126,
      "count": 176,
      "max": [
        0.9961941242218018,
        0.9997289180755615,
        0.9965485334396362
      ],
      "min": [
        -0.9961941242218018,
        -0.9998764395713806,
        -0.9970574975013733
      ],
      "type": "VEC3"
    },
    {
      "bufferView": 1,
      "byteOffset": 11984,
      "componentType": 5126,
      "count": 176,
      "max": [
        0.75,
        0.7500000596046448
      ],
      "min": [
        0.25,
        0.375
      ],
      "type": "VEC2"
    },
    {
      "bufferView": 0,
      "byteOffset": 20688,
      "componentType": 5125,
      "count": 576,
      "type": "SCALAR"
    },
    {
      "bufferView": 2,
      "byteOffset": 40176,
      "componentType": 5126,
      "count": 72,
      "max": [
        2.1612038612365723,
        1.0,
        1.0
      ],
      "min": [
        -0.8660253882408142,
        -1.0000009536743164,
        -1.0
      ],
      "type": "VEC3"
    },
    {
      "bufferView": 2,
      "byteOffset": 41040,
      "componentType": 5126,
      "count": 72,
      "max": [
        1.0,
        0.866025447845459,
        1.0
      ],
      "min": [
        -1.0,
        -0.866025447845459,
        -1.0
      ],
      "type": "VEC3"
    },
    {
      "bufferView": 1,
      "byteOffset": 13392,
      "componentType": 5126,
      "count": 72,
      "max": [
        1.0,
        1.0
      ],
      "min": [
        -8.940696716308594e-08,
        0.01000000536441803
      ],
      "type": "VEC2"
    },
    {
      "bufferView": 0,
      "byteOffset": 22992,
      "componentType": 5125,
      "count": 120,
      "type": "SCALAR"
    },
    {
      "bufferView": 2,
      "byteOffset": 41904,
      "componentType": 5126,
      "count": 47,
      "max": [
        1.0376375913619995,
        -1.1238995790481567,
        6.615878582000732
      ],
      "min": [
        -1.0376375913619995,
        -2.9292831420898438,
        1.2614561319351196
      ],
      "type": "VEC3"
    },
    {
      "bufferView": 2,
      "byteOffset": 42468,
      "componentType": 5126,
      "count": 47,
      "max": [
        0.8353825211524963,
        0.9045145511627197,
        0.4493197798728943
      ],
      "min": [
        -0.9038191437721252,
        -0.9907731413841248,
        -0.13922202587127686
      ],
      "type": "VEC3"
    },
    {
      "bufferView": 1,
      "byteOffset": 13968,
      "componentType": 5126,
      "count": 47,
      "max": [
        0.625,
        1.0000001192092896
      ],
      "min": [
        0.0,
        0.0
      ],
      "type": "VEC2"
    },
    {
      "bufferView": 0,
      "byteOffset": 23472,
      "componentType": 5125,
      "count": 78,
      "type": "SCALAR"
    }
  ],
  "asset": {
    "extras": {
      "author": "Dayzr (https://sketchfab.com/Dayzr)",
      "license": "CC-BY-4.0 (http://creativecommons.org/licenses/by/4.0/)",
      "source": "https://sketchfab.com/3d-models/northrop-f-5-06f25ed92d99456bb343805e652c0761",
      "title": "Northrop F-5"
    },
    "generator": "Sketchfab-15.44.0",
    "version": "2.0"
  },
  "bufferViews": [
    {
      "buffer": 0,
      "byteLength": 23784,
      "name": "floatBufferViews",
      "target": 34963
    },
    {
      "buffer": 0,
      "byteLength": 14344,
      "byteOffset": 23784,
      "byteStride": 8,
      "name": "floatBufferViews",
      "target": 34962
    },
    {
      "buffer": 0,
      "byteLength": 43032,
      "byteOffset": 38128,
      "byteStride": 12,
      "name": "floatBufferViews",
      "target": 34962
    }
  ],
  "buffers": [
    {
      "byteLength": 81160,
      "uri": "scene.bin"
    }
  ],
  "materials": [
    {
      "doubleSided": true,
      "name": "Mainframe__0",
      "pbrMetallicRoughness": {
        "metallicFactor": 0.0,
        "roughnessFactor": 0.6
      }
    },
    {
      "doubleSided": true,
      "name": "Materiais.003",
      "pbrMetallicRoughness": {
        "baseColorFactor": [
          0.0,
          0.0,
          0.0,
          1.0
        ],
        "metallicFactor": 0.0
      }
    },
    {
      "doubleSided": true,
      "name": "Materiais.002",
      "pbrMetallicRoughness": {
        "baseColorFactor": [
          0.8,
          0.742818,
          0.435523,
          1.0
        ],
        "metallicFactor": 0.0,
        "roughnessFactor": 0.8205042834674492
      }
    }
  ],
  "meshes": [
    {
      "name": "Mainframe__0",
      "primitives": [
        {
          "attributes": {
            "NORMAL": 1,
            "POSITION": 0,
            "TEXCOORD_0": 2
          },
          "indices": 3,
          "material": 0,
          "mode": 4
        }
      ]
    },
    {
      "name": "Wings__0",
      "primitives": [
        {
          "attributes": {
            "NORMAL": 5,
            "POSITION": 4,
            "TEXCOORD_0": 6
          },
          "indices": 7,
          "material": 0,
          "mode": 4
        }
      ]
    },
    {
      "name": "Intakes__0",
      "primitives": [
        {
          "attributes": {
            "NORMAL": 9,
            "POSITION": 8,
            "TEXCOORD_0": 10
          },
          "indices": 11,
          "material": 0,
          "mode": 4
        }
      ]
    },
    {
      "name": "Tail__0",
      "primitives": [
        {
          "attributes": {
            "NORMAL": 13,
            "POSITION": 12,
            "TEXCOORD_0": 14
          },
          "indices": 15,
          "material": 0,
          "mode": 4
        }
      ]
    },
    {
      "name": "TailWings__0",
      "primitives": [
        {
          "attributes": {
            "NORMAL": 17,
            "POSITION": 16,
            "TEXCOORD_0": 18
          },
          "indices": 19,
          "material": 0,
          "mode": 4
        }
      ]
    },
    {
      "name": "Engine_Materiais.003_0",
      "primitives": [
        {
          "attributes": {
            "NORMAL": 21,
            "POSITION": 20,
            "TEXCOORD_0": 22
          },
          "indices": 23,
          "material": 1,
          "mode": 4
        }
      ]
    },
    {
      "name": "windows_Materiais.002_0",
      "primitives": [
        {
          "attributes": {
            "NORMAL": 25,
            "POSITION": 24,
            "TEXCOORD_0": 26
          },
          "indices": 27,
          "material": 2,
          "mode": 4
        }
      ]
    }
  ],
  "nodes": [
    {
      "children": [
        1
      ],
      "matrix": [
        1.0,
        0.0,
        0.0,
        0.0,
        0.0,
        2.220446049250313e-16,
        -1.0,
        0.0,
        0.0,
        1.0,
        2.220446049250313e-16,
        0.0,
        0.0,
        0.0,
        0.0,
        1.0
      ],
      "name": "Sketchfab_model"
    },
    {
      "children": [
        2
      ],
      "matrix": [
        0.009999999776482582,
        0.0,
        0.0,
        0.0,
        0.0,
        0.0,
        0.009999999776482582,
        0.0,
        0.0,
        -0.009999999776482582,
        0.0,
        0.0,
        0.0,
        0.0,
        0.0,
        1.0
      ],
      "name": "07ad4ac58349474b898b5e3b7e04dec7.fbx"
    },
    {
      "children": [
        3,
        5,
        7,
        9,
        11,
        13,
        15
      ],
      "name": "RootNode"
    },
    {
      "children": [
        4
      ],
      "matrix": [
        9.600000381469727,
        2.13162854609349e-15,
        -2.1316285460934896e-15,
        0.0,
        2.131628867960421e-15,
        -9.60000038146962,
        1.4495597289395623e-06,
        0.0,
        -2.13162822422651e-15,
        -1.4495597289395623e-06,
        -9.60000038146962,
        0.0,
        0.0,
        -114.59272003173828,
        29.25151824951172,
        1.0
      ],
      "name": "Mainframe"
    },
    {
      "mesh": 0,
      "name": "Mainframe__0"
    },
    {
      "children": [
        6
      ],
      "matrix": [
        4.000000476837158,
        0.0,
        0.0,
        0.0,
        0.0,
        -6.516827952539594e-07,
        -4.000000476837105,
        0.0,
        0.0,
        4.000000476837105,
        -6.516827952539594e-07,
        0.0,
        0.0,
        -115.49104309082031,
        -94.31412506103516,
        1.0
      ],
      "name": "Wings"
    },
    {
      "mesh": 1,
      "name": "Wings__0"
    },
    {
      "children": [
        8
      ],
      "matrix": [
        9.00000286102295,
        0.0,
        0.0,
        0.0,
        0.0,
        -1.4662865806462854e-06,
        -9.00000286102283,
        0.0,
        0.0,
        9.00000286102283,
        -1.4662865806462854e-06,
        0.0,
        0.0,
        -111.0,
        -70.0,
        1.0
      ],
      "name": "Intakes"
    },
    {
      "mesh": 2,
      "name": "Intakes__0"
    },
    {
      "children": [
        10
      ],
      "matrix": [
        2.239999532699585,
        0.0,
        0.0,
        0.0,
        0.0,
        -1.6422402804665317e-07,
        -1.0079998970031605,
        0.0,
        0.0,
        0.8959997296333194,
        -1.459768846867596e-07,
        0.0,
        0.0,
        -47.0,
        -193.5484619140625,
        1.0
      ],
      "name": "Tail"
    },
    {
      "mesh": 3,
      "name": "Tail__0"
    },
    {
      "children": [
        12
      ],
      "matrix": [
        1.4400001764297485,
        0.0,
        0.0,
        0.0,
        0.0,
        -2.3460580706829173e-07,
        -1.4400001764297294,
        0.0,
        0.0,
        1.4400001764297294,
        -2.3460580706829173e-07,
        0.0,
        0.0,
        -115.03147888183594,
        -190.0,
        1.0
      ],
      "name": "TailWings"
    },
    {
      "mesh": 4,
      "name": "TailWings__0"
    },
    {
      "children": [
        14
      ],
      "matrix": [
        6.176755428314209,
        1.3715152187985715e-15,
        -1.3715150553012166e-15,
        0.0,
        1.3715150117055439e-15,
        -6.176755428314141,
        -9.32664121730207e-07,
        0.0,
        -1.2468320085951604e-15,
        8.478764415727302e-07,
        -5.615231990814147,
        0.0,
        -3.913750410079956,
        -106.42301940917969,
        -234.33010864257813,
        1.0
      ],
      "name": "Engine"
    },
    {
      "mesh": 5,
      "name": "Engine_Materiais.003_0"
    },
    {
      "children": [
        16
      ],
      "matrix": [
        9.600000381469727,
        2.13162854609349e-15,
        -2.1316285460934896e-15,
        0.0,
        2.131628867960421e-15,
        -9.60000038146962,
        1.4495597289395623e-06,
        0.0,
        -2.13162822422651e-15,
        -1.4495597289395623e-06,
        -9.60000038146962,
        0.0,
        0.0,
        -114.59272003173828,
        29.25151824951172,
        1.0
      ],
      "name": "windows"
    },
    {
      "mesh": 6,
      "name": "windows_Materiais.002_0"
    }
  ],
  "scene": 0,
  "scenes": [
    {
      "name": "Sketchfab_Scene",
      "nodes": [
        0
      ]
    }
  ]
}
