{
	"asset":{
		"generator":"Khronos glTF Blender I/O v4.3.47",
		"version":"2.0"
	},
	"scene":0,
	"scenes":[
		{
			"name":"Scene",
			"nodes":[
				20
			]
		}
	],
	"nodes":[
		{
			"name":"Cylinder",
			"rotation":[
				-0.70710688829422,
				0,
				0,
				0.7071066498756409
			],
			"scale":[
				0.7569100856781006,
				0.7569102048873901,
				0.7569102048873901
			],
			"translation":[
				-0.05074000358581543,
				-0.15467999875545502,
				0.47787997126579285
			]
		},
		{
			"name":"Bone.008_Armature",
			"rotation":[
				0.020354190841317177,
				3.982708207672658e-08,
				-0.1330268532037735,
				0.9909034371376038
			],
			"scale":[
				0.9999998807907104,
				1,
				1
			],
			"translation":[
				0.22469350695610046,
				0.7994318604469299,
				-0.01933874562382698
			]
		},
		{
			"name":"Bone.009_Armature",
			"rotation":[
				0.018112601712346077,
				-0.006368477828800678,
				0.1917802095413208,
				0.9812501072883606
			],
			"scale":[
				0.9999999403953552,
				1.0000001192092896,
				1
			],
			"translation":[
				-0.2400788813829422,
				0.7879322171211243,
				-0.02584284357726574
			]
		},
		{
			"children":[
				1,
				2
			],
			"name":"Bone.007_Armature",
			"rotation":[
				0.04670567438006401,
				8.102571200652164e-07,
				0.0025733965449035168,
				0.9989054203033447
			],
			"translation":[
				-0.008198073133826256,
				1.3676117658615112,
				0.06545519828796387
			]
		},
		{
			"children":[
				3
			],
			"name":"Bone.006_Armature",
			"rotation":[
				-0.09635815024375916,
				-9.213364364768495e-07,
				0.018713822588324547,
				0.9951707720756531
			],
			"scale":[
				0.9999998807907104,
				0.9999998211860657,
				0.9999998807907104
			],
			"translation":[
				-0.026206955313682556,
				0.8992892503738403,
				-0.09828048944473267
			]
		},
		{
			"children":[
				4
			],
			"name":"Bone.005_Armature",
			"rotation":[
				-0.48904287815093994,
				0.02748161181807518,
				-0.0017456067726016045,
				0.8718249797821045
			],
			"scale":[
				1,
				1.0000001192092896,
				0.9999999403953552
			],
			"translation":[
				0.0903475433588028,
				2.876060962677002,
				0.3946642279624939
			]
		},
		{
			"children":[
				5
			],
			"name":"Bone.004_Armature",
			"rotation":[
				-0.7754114866256714,
				-1.777581815076701e-07,
				0.0641503781080246,
				0.6281892657279968
			],
			"scale":[
				1,
				1.0000001192092896,
				1.0000001192092896
			],
			"translation":[
				-0.046238526701927185,
				2.798542022705078,
				0.1354731023311615
			]
		},
		{
			"children":[
				6
			],
			"name":"Bone.003_Armature",
			"rotation":[
				-0.5341216921806335,
				-0.03779906406998634,
				0.022521907463669777,
				0.844261884689331
			],
			"scale":[
				0.9999999403953552,
				0.9999999403953552,
				1
			],
			"translation":[
				0.12539435923099518,
				1.2700328826904297,
				-0.5803847312927246
			]
		},
		{
			"children":[
				7
			],
			"name":"Bone.002_Armature",
			"rotation":[
				-0.2966439425945282,
				-0.00030354951741173863,
				-0.0008067568996921182,
				0.9549877643585205
			],
			"scale":[
				1,
				0.9999998807907104,
				1
			],
			"translation":[
				-0.0018325588898733258,
				0.11757124215364456,
				-0.5768536925315857
			]
		},
		{
			"children":[
				8
			],
			"name":"Bone.001_Armature",
			"rotation":[
				-7.105427357601002e-15,
				-3.552713678800501e-15,
				1.2705494208814505e-21,
				1
			],
			"translation":[
				-9.835842007532847e-08,
				0.17564994096755981,
				-0.6200798153877258
			]
		},
		{
			"children":[
				9
			],
			"name":"Bone_Armature",
			"rotation":[
				0.7071066498756409,
				-6.548670938855139e-08,
				-4.128345665321831e-08,
				0.70710688829422
			],
			"translation":[
				-5.994376550688685e-09,
				1.4901161193847656e-08,
				-2.2771112995201293e-08
			]
		},
		{
			"children":[
				10
			],
			"name":"Armature_rootJoint",
			"rotation":[
				-8.557137221032463e-09,
				1.7114274442064925e-08,
				-2.928983286277023e-16,
				1
			],
			"translation":[
				-3.725290298461914e-09,
				1.4901161193847656e-08,
				-2.9802322387695312e-08
			]
		},
		{
			"mesh":0,
			"name":"Cylinder_0",
			"skin":0
		},
		{
			"children":[
				0,
				12,
				11
			],
			"name":"Armature",
			"rotation":[
				0.70710688829422,
				0,
				0,
				0.7071066498756409
			],
			"scale":[
				1.3211499452590942,
				1.3211500644683838,
				1.3211500644683838
			],
			"translation":[
				0.06703999638557434,
				0.6313599944114685,
				0.20434999465942383
			]
		},
		{
			"name":"Hemi.001"
		},
		{
			"children":[
				14
			],
			"name":"Hemi",
			"translation":[
				-7.317649841308594,
				-0.815090000629425,
				0.38811996579170227
			]
		},
		{
			"mesh":1,
			"name":"Plane_0"
		},
		{
			"children":[
				16
			],
			"name":"Plane",
			"scale":[
				3.348789930343628,
				3.348789691925049,
				3.348789691925049
			],
			"translation":[
				0.11337999254465103,
				0.1561100035905838,
				-0.02906000055372715
			]
		},
		{
			"name":"Plane.001",
			"scale":[
				0.6421999931335449,
				1.6850398778915405,
				3.349259853363037
			],
			"translation":[
				-4.171879768371582,
				-1.4840699434280396,
				0.00203000009059906
			]
		},
		{
			"children":[
				13,
				15,
				17,
				18
			],
			"name":"Root"
		},
		{
			"children":[
				19
			],
			"name":"Sketchfab_model",
			"rotation":[
				-0.70710688829422,
				0,
				0,
				0.7071066498756409
			],
			"scale":[
				0.32859453558921814,
				0.3285945653915405,
				0.3285945653915405
			]
		}
	],
	"animations":[
		{
			"channels":[
				{
					"sampler":0,
					"target":{
						"node":11,
						"path":"translation"
					}
				},
				{
					"sampler":1,
					"target":{
						"node":11,
						"path":"rotation"
					}
				},
				{
					"sampler":2,
					"target":{
						"node":11,
						"path":"scale"
					}
				},
				{
					"sampler":3,
					"target":{
						"node":10,
						"path":"translation"
					}
				},
				{
					"sampler":4,
					"target":{
						"node":10,
						"path":"rotation"
					}
				},
				{
					"sampler":5,
					"target":{
						"node":10,
						"path":"scale"
					}
				},
				{
					"sampler":6,
					"target":{
						"node":9,
						"path":"translation"
					}
				},
				{
					"sampler":7,
					"target":{
						"node":9,
						"path":"rotation"
					}
				},
				{
					"sampler":8,
					"target":{
						"node":9,
						"path":"scale"
					}
				},
				{
					"sampler":9,
					"target":{
						"node":8,
						"path":"translation"
					}
				},
				{
					"sampler":10,
					"target":{
						"node":8,
						"path":"rotation"
					}
				},
				{
					"sampler":11,
					"target":{
						"node":8,
						"path":"scale"
					}
				},
				{
					"sampler":12,
					"target":{
						"node":7,
						"path":"translation"
					}
				},
				{
					"sampler":13,
					"target":{
						"node":7,
						"path":"rotation"
					}
				},
				{
					"sampler":14,
					"target":{
						"node":7,
						"path":"scale"
					}
				},
				{
					"sampler":15,
					"target":{
						"node":6,
						"path":"translation"
					}
				},
				{
					"sampler":16,
					"target":{
						"node":6,
						"path":"rotation"
					}
				},
				{
					"sampler":17,
					"target":{
						"node":6,
						"path":"scale"
					}
				},
				{
					"sampler":18,
					"target":{
						"node":5,
						"path":"translation"
					}
				},
				{
					"sampler":19,
					"target":{
						"node":5,
						"path":"rotation"
					}
				},
				{
					"sampler":20,
					"target":{
						"node":5,
						"path":"scale"
					}
				},
				{
					"sampler":21,
					"target":{
						"node":4,
						"path":"translation"
					}
				},
				{
					"sampler":22,
					"target":{
						"node":4,
						"path":"rotation"
					}
				},
				{
					"sampler":23,
					"target":{
						"node":4,
						"path":"scale"
					}
				},
				{
					"sampler":24,
					"target":{
						"node":3,
						"path":"translation"
					}
				},
				{
					"sampler":25,
					"target":{
						"node":3,
						"path":"rotation"
					}
				},
				{
					"sampler":26,
					"target":{
						"node":3,
						"path":"scale"
					}
				},
				{
					"sampler":27,
					"target":{
						"node":1,
						"path":"translation"
					}
				},
				{
					"sampler":28,
					"target":{
						"node":1,
						"path":"rotation"
					}
				},
				{
					"sampler":29,
					"target":{
						"node":1,
						"path":"scale"
					}
				},
				{
					"sampler":30,
					"target":{
						"node":2,
						"path":"translation"
					}
				},
				{
					"sampler":31,
					"target":{
						"node":2,
						"path":"rotation"
					}
				},
				{
					"sampler":32,
					"target":{
						"node":2,
						"path":"scale"
					}
				}
			],
			"name":"ArmatureAction",
			"samplers":[
				{
					"input":11,
					"interpolation":"STEP",
					"output":12
				},
				{
					"input":11,
					"interpolation":"STEP",
					"output":13
				},
				{
					"input":11,
					"interpolation":"STEP",
					"output":14
				},
				{
					"input":11,
					"interpolation":"STEP",
					"output":15
				},
				{
					"input":11,
					"interpolation":"STEP",
					"output":16
				},
				{
					"input":11,
					"interpolation":"STEP",
					"output":17
				},
				{
					"input":18,
					"interpolation":"LINEAR",
					"output":19
				},
				{
					"input":18,
					"interpolation":"LINEAR",
					"output":20
				},
				{
					"input":11,
					"interpolation":"STEP",
					"output":21
				},
				{
					"input":11,
					"interpolation":"STEP",
					"output":22
				},
				{
					"input":18,
					"interpolation":"LINEAR",
					"output":23
				},
				{
					"input":11,
					"interpolation":"STEP",
					"output":24
				},
				{
					"input":11,
					"interpolation":"STEP",
					"output":25
				},
				{
					"input":18,
					"interpolation":"LINEAR",
					"output":26
				},
				{
					"input":11,
					"interpolation":"STEP",
					"output":27
				},
				{
					"input":11,
					"interpolation":"STEP",
					"output":28
				},
				{
					"input":18,
					"interpolation":"LINEAR",
					"output":29
				},
				{
					"input":11,
					"interpolation":"STEP",
					"output":30
				},
				{
					"input":11,
					"interpolation":"STEP",
					"output":31
				},
				{
					"input":18,
					"interpolation":"LINEAR",
					"output":32
				},
				{
					"input":11,
					"interpolation":"STEP",
					"output":33
				},
				{
					"input":11,
					"interpolation":"STEP",
					"output":34
				},
				{
					"input":11,
					"interpolation":"STEP",
					"output":35
				},
				{
					"input":11,
					"interpolation":"STEP",
					"output":36
				},
				{
					"input":11,
					"interpolation":"STEP",
					"output":37
				},
				{
					"input":18,
					"interpolation":"LINEAR",
					"output":38
				},
				{
					"input":11,
					"interpolation":"STEP",
					"output":39
				},
				{
					"input":11,
					"interpolation":"STEP",
					"output":40
				},
				{
					"input":18,
					"interpolation":"LINEAR",
					"output":41
				},
				{
					"input":11,
					"interpolation":"STEP",
					"output":42
				},
				{
					"input":11,
					"interpolation":"STEP",
					"output":43
				},
				{
					"input":18,
					"interpolation":"LINEAR",
					"output":44
				},
				{
					"input":11,
					"interpolation":"STEP",
					"output":45
				}
			]
		}
	],
	"materials":[
		{
			"doubleSided":true,
			"name":"Material.002",
			"pbrMetallicRoughness":{
				"baseColorTexture":{
					"index":0
				},
				"metallicFactor":0.25447696447372437,
				"metallicRoughnessTexture":{
					"index":1
				},
				"roughnessFactor":0
			}
		},
		{
			"alphaMode":"BLEND",
			"doubleSided":true,
			"name":"Material.001",
			"pbrMetallicRoughness":{
				"baseColorFactor":[
					1,
					1,
					1,
					0.37028685212135315
				],
				"baseColorTexture":{
					"index":2
				},
				"metallicFactor":0,
				"roughnessFactor":0.6000000238418579
			}
		}
	],
	"meshes":[
		{
			"name":"Cylinder",
			"primitives":[
				{
					"attributes":{
						"POSITION":0,
						"NORMAL":1,
						"TEXCOORD_0":2,
						"JOINTS_0":3,
						"WEIGHTS_0":4
					},
					"indices":5,
					"material":0
				}
			]
		},
		{
			"name":"Plane_0",
			"primitives":[
				{
					"attributes":{
						"POSITION":7,
						"NORMAL":8,
						"TEXCOORD_0":9
					},
					"indices":10,
					"material":1
				}
			]
		}
	],
	"textures":[
		{
			"sampler":0,
			"source":0
		},
		{
			"sampler":0,
			"source":1
		},
		{
			"sampler":0,
			"source":2
		}
	],
	"images":[
		{
			"mimeType":"image/jpeg",
			"name":"Material.002_baseColor",
			"uri":"textures/Material_002_baseColor.jpg"
		},
		{
			"mimeType":"image/png",
			"name":"Material.002_metallicRoughness",
			"uri":"textures/Material_002_metallicRoughness.png"
		},
		{
			"mimeType":"image/png",
			"name":"Material_baseColor",
			"uri":"textures/Material_baseColor.png"
		}
	],
	"skins":[
		{
			"inverseBindMatrices":6,
			"joints":[
				11,
				10,
				9,
				8,
				7,
				6,
				5,
				4,
				3,
				1,
				2
			],
			"name":"Armature"
		}
	],
	"accessors":[
		{
			"bufferView":0,
			"componentType":5126,
			"count":6316,
			"max":[
				0.3724571168422699,
				2.4908103942871094,
				0.37245258688926697
			],
			"min":[
				-0.372453898191452,
				-0.007201280444860458,
				-1.263360619544983
			],
			"type":"VEC3"
		},
		{
			"bufferView":1,
			"componentType":5126,
			"count":6316,
			"type":"VEC3"
		},
		{
			"bufferView":2,
			"componentType":5126,
			"count":6316,
			"type":"VEC2"
		},
		{
			"bufferView":3,
			"componentType":5121,
			"count":6316,
			"type":"VEC4"
		},
		{
			"bufferView":4,
			"componentType":5126,
			"count":6316,
			"type":"VEC4"
		},
		{
			"bufferView":5,
			"componentType":5123,
			"count":33150,
			"type":"SCALAR"
		},
		{
			"bufferView":6,
			"componentType":5126,
			"count":11,
			"type":"MAT4"
		},
		{
			"bufferView":7,
			"componentType":5126,
			"count":4,
			"max":[
				1,
				1,
				0
			],
			"min":[
				-1,
				-1,
				0
			],
			"type":"VEC3"
		},
		{
			"bufferView":8,
			"componentType":5126,
			"count":4,
			"type":"VEC3"
		},
		{
			"bufferView":9,
			"componentType":5126,
			"count":4,
			"type":"VEC2"
		},
		{
			"bufferView":10,
			"componentType":5123,
			"count":6,
			"type":"SCALAR"
		},
		{
			"bufferView":11,
			"componentType":5126,
			"count":2,
			"max":[
				10
			],
			"min":[
				0
			],
			"type":"SCALAR"
		},
		{
			"bufferView":12,
			"componentType":5126,
			"count":2,
			"type":"VEC3"
		},
		{
			"bufferView":13,
			"componentType":5126,
			"count":2,
			"type":"VEC4"
		},
		{
			"bufferView":14,
			"componentType":5126,
			"count":2,
			"type":"VEC3"
		},
		{
			"bufferView":15,
			"componentType":5126,
			"count":2,
			"type":"VEC3"
		},
		{
			"bufferView":16,
			"componentType":5126,
			"count":2,
			"type":"VEC4"
		},
		{
			"bufferView":17,
			"componentType":5126,
			"count":2,
			"type":"VEC3"
		},
		{
			"bufferView":18,
			"componentType":5126,
			"count":241,
			"max":[
				10
			],
			"min":[
				0
			],
			"type":"SCALAR"
		},
		{
			"bufferView":19,
			"componentType":5126,
			"count":241,
			"type":"VEC3"
		},
		{
			"bufferView":20,
			"componentType":5126,
			"count":241,
			"type":"VEC4"
		},
		{
			"bufferView":21,
			"componentType":5126,
			"count":2,
			"type":"VEC3"
		},
		{
			"bufferView":22,
			"componentType":5126,
			"count":2,
			"type":"VEC3"
		},
		{
			"bufferView":23,
			"componentType":5126,
			"count":241,
			"type":"VEC4"
		},
		{
			"bufferView":24,
			"componentType":5126,
			"count":2,
			"type":"VEC3"
		},
		{
			"bufferView":25,
			"componentType":5126,
			"count":2,
			"type":"VEC3"
		},
		{
			"bufferView":26,
			"componentType":5126,
			"count":241,
			"type":"VEC4"
		},
		{
			"bufferView":27,
			"componentType":5126,
			"count":2,
			"type":"VEC3"
		},
		{
			"bufferView":28,
			"componentType":5126,
			"count":2,
			"type":"VEC3"
		},
		{
			"bufferView":29,
			"componentType":5126,
			"count":241,
			"type":"VEC4"
		},
		{
			"bufferView":30,
			"componentType":5126,
			"count":2,
			"type":"VEC3"
		},
		{
			"bufferView":31,
			"componentType":5126,
			"count":2,
			"type":"VEC3"
		},
		{
			"bufferView":32,
			"componentType":5126,
			"count":241,
			"type":"VEC4"
		},
		{
			"bufferView":33,
			"componentType":5126,
			"count":2,
			"type":"VEC3"
		},
		{
			"bufferView":34,
			"componentType":5126,
			"count":2,
			"type":"VEC3"
		},
		{
			"bufferView":35,
			"componentType":5126,
			"count":2,
			"type":"VEC4"
		},
		{
			"bufferView":36,
			"componentType":5126,
			"count":2,
			"type":"VEC3"
		},
		{
			"bufferView":37,
			"componentType":5126,
			"count":2,
			"type":"VEC3"
		},
		{
			"bufferView":38,
			"componentType":5126,
			"count":241,
			"type":"VEC4"
		},
		{
			"bufferView":39,
			"componentType":5126,
			"count":2,
			"type":"VEC3"
		},
		{
			"bufferView":40,
			"componentType":5126,
			"count":2,
			"type":"VEC3"
		},
		{
			"bufferView":41,
			"componentType":5126,
			"count":241,
			"type":"VEC4"
		},
		{
			"bufferView":42,
			"componentType":5126,
			"count":2,
			"type":"VEC3"
		},
		{
			"bufferView":43,
			"componentType":5126,
			"count":2,
			"type":"VEC3"
		},
		{
			"bufferView":44,
			"componentType":5126,
			"count":241,
			"type":"VEC4"
		},
		{
			"bufferView":45,
			"componentType":5126,
			"count":2,
			"type":"VEC3"
		}
	],
	"bufferViews":[
		{
			"buffer":0,
			"byteLength":75792,
			"byteOffset":0,
			"target":34962
		},
		{
			"buffer":0,
			"byteLength":75792,
			"byteOffset":75792,
			"target":34962
		},
		{
			"buffer":0,
			"byteLength":50528,
			"byteOffset":151584,
			"target":34962
		},
		{
			"buffer":0,
			"byteLength":25264,
			"byteOffset":202112,
			"target":34962
		},
		{
			"buffer":0,
			"byteLength":101056,
			"byteOffset":227376,
			"target":34962
		},
		{
			"buffer":0,
			"byteLength":66300,
			"byteOffset":328432,
			"target":34963
		},
		{
			"buffer":0,
			"byteLength":704,
			"byteOffset":394732
		},
		{
			"buffer":0,
			"byteLength":48,
			"byteOffset":395436,
			"target":34962
		},
		{
			"buffer":0,
			"byteLength":48,
			"byteOffset":395484,
			"target":34962
		},
		{
			"buffer":0,
			"byteLength":32,
			"byteOffset":395532,
			"target":34962
		},
		{
			"buffer":0,
			"byteLength":12,
			"byteOffset":395564,
			"target":34963
		},
		{
			"buffer":0,
			"byteLength":8,
			"byteOffset":395576
		},
		{
			"buffer":0,
			"byteLength":24,
			"byteOffset":395584
		},
		{
			"buffer":0,
			"byteLength":32,
			"byteOffset":395608
		},
		{
			"buffer":0,
			"byteLength":24,
			"byteOffset":395640
		},
		{
			"buffer":0,
			"byteLength":24,
			"byteOffset":395664
		},
		{
			"buffer":0,
			"byteLength":32,
			"byteOffset":395688
		},
		{
			"buffer":0,
			"byteLength":24,
			"byteOffset":395720
		},
		{
			"buffer":0,
			"byteLength":964,
			"byteOffset":395744
		},
		{
			"buffer":0,
			"byteLength":2892,
			"byteOffset":396708
		},
		{
			"buffer":0,
			"byteLength":3856,
			"byteOffset":399600
		},
		{
			"buffer":0,
			"byteLength":24,
			"byteOffset":403456
		},
		{
			"buffer":0,
			"byteLength":24,
			"byteOffset":403480
		},
		{
			"buffer":0,
			"byteLength":3856,
			"byteOffset":403504
		},
		{
			"buffer":0,
			"byteLength":24,
			"byteOffset":407360
		},
		{
			"buffer":0,
			"byteLength":24,
			"byteOffset":407384
		},
		{
			"buffer":0,
			"byteLength":3856,
			"byteOffset":407408
		},
		{
			"buffer":0,
			"byteLength":24,
			"byteOffset":411264
		},
		{
			"buffer":0,
			"byteLength":24,
			"byteOffset":411288
		},
		{
			"buffer":0,
			"byteLength":3856,
			"byteOffset":411312
		},
		{
			"buffer":0,
			"byteLength":24,
			"byteOffset":415168
		},
		{
			"buffer":0,
			"byteLength":24,
			"byteOffset":415192
		},
		{
			"buffer":0,
			"byteLength":3856,
			"byteOffset":415216
		},
		{
			"buffer":0,
			"byteLength":24,
			"byteOffset":419072
		},
		{
			"buffer":0,
			"byteLength":24,
			"byteOffset":419096
		},
		{
			"buffer":0,
			"byteLength":32,
			"byteOffset":419120
		},
		{
			"buffer":0,
			"byteLength":24,
			"byteOffset":419152
		},
		{
			"buffer":0,
			"byteLength":24,
			"byteOffset":419176
		},
		{
			"buffer":0,
			"byteLength":3856,
			"byteOffset":419200
		},
		{
			"buffer":0,
			"byteLength":24,
			"byteOffset":423056
		},
		{
			"buffer":0,
			"byteLength":24,
			"byteOffset":423080
		},
		{
			"buffer":0,
			"byteLength":3856,
			"byteOffset":423104
		},
		{
			"buffer":0,
			"byteLength":24,
			"byteOffset":426960
		},
		{
			"buffer":0,
			"byteLength":24,
			"byteOffset":426984
		},
		{
			"buffer":0,
			"byteLength":3856,
			"byteOffset":427008
		},
		{
			"buffer":0,
			"byteLength":24,
			"byteOffset":430864
		}
	],
	"samplers":[
		{
			"magFilter":9729,
			"minFilter":9987
		}
	],
	"buffers":[
		{
			"byteLength":430888,
			"uri":"scene.bin"
		}
	]
}
